<svg xmlns="http://www.w3.org/2000/svg" width="24" height="24" viewBox="0 0 24 24">
    <path fill="#1DADEB" fill-rule="evenodd" d="M16.771 9.553c.005.105.008.211.008.318 0 3.253-2.476 7.005-7.005 7.005A6.97 6.97 0 0 1 6 15.77a4.938 4.938 0 0 0 3.645-1.02 2.464 2.464 0 0 1-2.3-1.709 2.484 2.484 0 0 0 1.112-.043 2.462 2.462 0 0 1-1.975-2.413v-.032a2.45 2.45 0 0 0 1.115.308 2.462 2.462 0 0 1-.762-3.287 6.99 6.99 0 0 0 5.075 2.573A2.462 2.462 0 0 1 16.105 7.9a4.926 4.926 0 0 0 1.564-.597 2.474 2.474 0 0 1-1.083 1.362A4.94 4.94 0 0 0 18 8.278c-.33.494-.748.928-1.229 1.275zM0 12c0 6.627 5.371 12 12 12 6.627 0 12-5.371 12-12 0-6.627-5.371-12-12-12C5.373 0 0 5.371 0 12z"/>
</svg>
